# xmcd CD database file
#
# Track frame offsets:
#	150
#	18602
#	41430
#	62594
#	83233
#	101810
#	121632
#	144481
#	166475
#	186035
#	203181
#	227211
#	244544
#	265400
#	282734
#	301990
#
# Disc length: 4287 seconds
#
# Revision: 0
# Processed by: cddbd v1.5.1PL0 Copyright (c) Steve Scherf et al.
# Submitted via: CDex 1.50Beta7
#
DISCID=e110bd10
DTITLE=Aqui esta el Merengue  - Serie 32 CD1
DYEAR=1997
DGENRE=Merengue
TTITLE0=Bonny Cpeda - Una Fotografia
TTITLE1=Fernandito Vilalona - Cama y Mesa
TTITLE2=Carlos Alfredo - Sigue Amandome
TTITLE3=The New York Band - Nadien Como Tu
TTITLE4=Dioni Fernández - Loco Loco
TTITLE5=Wilfrido Vargas - Miriam Cruz - Dos Rosas
TTITLE6=Bonny Cepeda - Ay Doctor
TTITLE7=Aramis Camilo - Candela PA LO PIE
TTITLE8=Carlos Alfredo - Merengue Clasico
TTITLE9=Las Chicas del Can - Culeca
TTITLE10=Dioni Fernández - Sergio Vargaz - El Ritmo de la Noche
TTITLE11=Victor Roque y La Gran Manzana - El Negro Bembon
TTITLE12=Wilfrido Vargas - Atrevida
TTITLE13=Roberto antonio - Noches de Fantasia
TTITLE14=Manny Manuel - Mi Problema
TTITLE15=Soledad Bravo - Sola
EXTD=YEAR: 1997
EXTT0=
EXTT1=
EXTT2=
EXTT3=
EXTT4=
EXTT5=
EXTT6=
EXTT7=
EXTT8=
EXTT9=
EXTT10=
EXTT11=
EXTT12=
EXTT13=
EXTT14=
EXTT15=
PLAYORDER=
